<?xml version="1.0" encoding="UTF-8"?> <svg xmlns="http://www.w3.org/2000/svg" xmlns:xlink="http://www.w3.org/1999/xlink" viewBox="0 0 800.71 400"><defs><style>.cls-1{isolation:isolate;}.cls-2{fill:#020230;}.cls-26,.cls-3,.cls-31,.cls-32{fill:#172f78;}.cls-22,.cls-28,.cls-29,.cls-3,.cls-30{opacity:0.6;}.cls-33,.cls-34,.cls-35,.cls-4{fill:#03a7d3;}.cls-5{fill:url(#Áĺçűě_ííűé_ăđŕäčĺíň_354);}.cls-6{fill:url(#Áĺçűě_ííűé_ăđŕäčĺíň_346);}.cls-7{fill:#fff;}.cls-8{fill:#06033e;}.cls-25,.cls-31,.cls-33,.cls-8{opacity:0.4;}.cls-9{fill:url(#Áĺçűě_ííűé_ăđŕäčĺíň_354-2);}.cls-10{fill:url(#Áĺçűě_ííűé_ăđŕäčĺíň_346-2);}.cls-11{fill:url(#Áĺçűě_ííűé_ăđŕäčĺíň_354-3);}.cls-12{fill:url(#Áĺçűě_ííűé_ăđŕäčĺíň_346-3);}.cls-13{fill:url(#Áĺçűě_ííűé_ăđŕäčĺíň_67);}.cls-14{fill:#8b1e64;}.cls-15,.cls-27{opacity:0.3;}.cls-16{fill:url(#Áĺçűě_ííűé_ăđŕäčĺíň_354-4);}.cls-17{fill:url(#Áĺçűě_ííűé_ăđŕäčĺíň_346-4);}.cls-18{fill:url(#Áĺçűě_ííűé_ăđŕäčĺíň_354-5);}.cls-19{fill:url(#Áĺçűě_ííűé_ăđŕäčĺíň_346-5);}.cls-20{fill:url(#Áĺçűě_ííűé_ăđŕäčĺíň_354-6);}.cls-21{fill:url(#Áĺçűě_ííűé_ăđŕäčĺíň_346-6);}.cls-22,.cls-27,.cls-28,.cls-29,.cls-30{mix-blend-mode:lighten;}.cls-22{fill:url(#Áĺçűě_ííűé_ăđŕäčĺíň_44);}.cls-23,.cls-24,.cls-25{fill:#f8359e;}.cls-23,.cls-32,.cls-34,.cls-44{opacity:0.8;}.cls-27{fill:url(#Áĺçűě_ííűé_ăđŕäčĺíň_17);}.cls-28{fill:url(#Áĺçűě_ííűé_ăđŕäčĺíň_17-2);}.cls-29{fill:url(#Áĺçűě_ííűé_ăđŕäčĺíň_17-3);}.cls-30{fill:url(#Áĺçűě_ííűé_ăđŕäčĺíň_44-2);}.cls-35{opacity:0.7;}.cls-36{fill:url(#Áĺçűě_ííűé_ăđŕäčĺíň_354-7);}.cls-37{fill:url(#Áĺçűě_ííűé_ăđŕäčĺíň_346-7);}.cls-38{fill:url(#Áĺçűě_ííűé_ăđŕäčĺíň_354-8);}.cls-39{fill:url(#Áĺçűě_ííűé_ăđŕäčĺíň_346-8);}.cls-40{fill:url(#Áĺçűě_ííűé_ăđŕäčĺíň_354-9);}.cls-41{fill:url(#Áĺçűě_ííűé_ăđŕäčĺíň_346-9);}.cls-42{fill:url(#Áĺçűě_ííűé_ăđŕäčĺíň_67-2);}.cls-43{opacity:0.5;}.cls-44{fill:#01c8ef;}</style><linearGradient id="Áĺçűě_ííűé_ăđŕäčĺíň_354" x1="122.25" y1="159.27" x2="182.39" y2="159.27" gradientUnits="userSpaceOnUse"><stop offset="0" stop-color="#01c8ef"></stop><stop offset="0.13" stop-color="#04b1dd"></stop><stop offset="0.55" stop-color="#0e6ba7"></stop><stop offset="0.85" stop-color="#154085"></stop><stop offset="1" stop-color="#172f78"></stop></linearGradient><radialGradient id="Áĺçűě_ííűé_ăđŕäčĺíň_346" cx="111.59" cy="114.17" r="134.3" gradientUnits="userSpaceOnUse"><stop offset="0" stop-color="#01c8ef"></stop><stop offset="0.14" stop-color="#03bae4"></stop><stop offset="0.4" stop-color="#0895c8"></stop><stop offset="0.76" stop-color="#115a9a"></stop><stop offset="1" stop-color="#172f78"></stop></radialGradient><linearGradient id="Áĺçűě_ííűé_ăđŕäčĺíň_354-2" x1="122.25" y1="127.34" x2="182.39" y2="127.34" xlink:href="#Áĺçűě_ííűé_ăđŕäčĺíň_354"></linearGradient><radialGradient id="Áĺçűě_ííűé_ăđŕäčĺíň_346-2" cx="111.59" cy="82.24" r="134.3" xlink:href="#Áĺçűě_ííűé_ăđŕäčĺíň_346"></radialGradient><linearGradient id="Áĺçűě_ííűé_ăđŕäčĺíň_354-3" x1="122.25" y1="95.4" x2="182.39" y2="95.4" xlink:href="#Áĺçűě_ííűé_ăđŕäčĺíň_354"></linearGradient><radialGradient id="Áĺçűě_ííűé_ăđŕäčĺíň_346-3" cx="111.59" cy="50.31" r="134.3" xlink:href="#Áĺçűě_ííűé_ăđŕäčĺíň_346"></radialGradient><radialGradient id="Áĺçűě_ííűé_ăđŕäčĺíň_67" cx="123.44" cy="58.4" r="92.34" gradientUnits="userSpaceOnUse"><stop offset="0" stop-color="#f9636b"></stop><stop offset="1" stop-color="#b6246e"></stop></radialGradient><linearGradient id="Áĺçűě_ííűé_ăđŕäčĺíň_354-4" x1="122.5" y1="328.25" x2="181.16" y2="328.25" xlink:href="#Áĺçűě_ííűé_ăđŕäčĺíň_354"></linearGradient><radialGradient id="Áĺçűě_ííűé_ăđŕäčĺíň_346-4" cx="112.1" cy="284.26" r="130.99" xlink:href="#Áĺçűě_ííűé_ăđŕäčĺíň_346"></radialGradient><linearGradient id="Áĺçűě_ííűé_ăđŕäčĺíň_354-5" x1="122.5" y1="297.1" x2="181.16" y2="297.1" xlink:href="#Áĺçűě_ííűé_ăđŕäčĺíň_354"></linearGradient><radialGradient id="Áĺçűě_ííűé_ăđŕäčĺíň_346-5" cx="112.1" cy="253.12" r="130.99" xlink:href="#Áĺçűě_ííűé_ăđŕäčĺíň_346"></radialGradient><linearGradient id="Áĺçűě_ííűé_ăđŕäčĺíň_354-6" x1="122.5" y1="265.96" x2="181.16" y2="265.96" xlink:href="#Áĺçűě_ííűé_ăđŕäčĺíň_354"></linearGradient><radialGradient id="Áĺçűě_ííűé_ăđŕäčĺíň_346-6" cx="112.1" cy="221.97" r="130.99" xlink:href="#Áĺçűě_ííűé_ăđŕäčĺíň_346"></radialGradient><radialGradient id="Áĺçűě_ííűé_ăđŕäčĺíň_44" cx="519.64" cy="138.04" r="80.25" gradientUnits="userSpaceOnUse"><stop offset="0" stop-color="#f8359e"></stop><stop offset="0.04" stop-color="#e63192"></stop><stop offset="0.19" stop-color="#aa246c"></stop><stop offset="0.34" stop-color="#76194b"></stop><stop offset="0.49" stop-color="#4b1030"></stop><stop offset="0.63" stop-color="#2b091b"></stop><stop offset="0.77" stop-color="#13040c"></stop><stop offset="0.89" stop-color="#050103"></stop><stop offset="1"></stop></radialGradient><linearGradient id="Áĺçűě_ííűé_ăđŕäčĺíň_17" x1="518.56" y1="341.91" x2="518.56" y2="240.6" gradientUnits="userSpaceOnUse"><stop offset="0" stop-color="#020230"></stop><stop offset="0.19" stop-color="#020533"></stop><stop offset="0.33" stop-color="#020f3c"></stop><stop offset="0.47" stop-color="#021f4c"></stop><stop offset="0.59" stop-color="#023663"></stop><stop offset="0.7" stop-color="#02547f"></stop><stop offset="0.82" stop-color="#0179a3"></stop><stop offset="0.92" stop-color="#01a4cc"></stop><stop offset="1" stop-color="#01c8ef"></stop></linearGradient><linearGradient id="Áĺçűě_ííűé_ăđŕäčĺíň_17-2" x1="476.48" y1="341.91" x2="476.48" y2="240.6" xlink:href="#Áĺçűě_ííűé_ăđŕäčĺíň_17"></linearGradient><linearGradient id="Áĺçűě_ííűé_ăđŕäčĺíň_17-3" x1="560.65" y1="341.91" x2="560.65" y2="240.6" xlink:href="#Áĺçűě_ííűé_ăđŕäčĺíň_17"></linearGradient><radialGradient id="Áĺçűě_ííűé_ăđŕäčĺíň_44-2" cx="518.86" cy="149.64" r="80.98" xlink:href="#Áĺçűě_ííűé_ăđŕäčĺíň_44"></radialGradient><linearGradient id="Áĺçűě_ííűé_ăđŕäčĺíň_354-7" x1="363.71" y1="244.18" x2="433.88" y2="244.18" xlink:href="#Áĺçűě_ííűé_ăđŕäčĺíň_354"></linearGradient><radialGradient id="Áĺçűě_ííűé_ăđŕäčĺíň_346-7" cx="351.27" cy="191.55" r="156.72" xlink:href="#Áĺçűě_ííűé_ăđŕäčĺíň_346"></radialGradient><linearGradient id="Áĺçűě_ííűé_ăđŕäčĺíň_354-8" x1="363.71" y1="206.91" x2="433.88" y2="206.91" xlink:href="#Áĺçűě_ííűé_ăđŕäčĺíň_354"></linearGradient><radialGradient id="Áĺçűě_ííűé_ăđŕäčĺíň_346-8" cx="351.27" cy="154.29" r="156.72" xlink:href="#Áĺçűě_ííűé_ăđŕäčĺíň_346"></radialGradient><linearGradient id="Áĺçűě_ííűé_ăđŕäčĺíň_354-9" x1="363.71" y1="169.65" x2="433.88" y2="169.65" xlink:href="#Áĺçűě_ííűé_ăđŕäčĺíň_354"></linearGradient><radialGradient id="Áĺçűě_ííűé_ăđŕäčĺíň_346-9" cx="351.27" cy="117.03" r="156.72" xlink:href="#Áĺçűě_ííűé_ăđŕäčĺíň_346"></radialGradient><radialGradient id="Áĺçűě_ííűé_ăđŕäčĺíň_67-2" cx="365.09" cy="126.47" r="107.75" xlink:href="#Áĺçűě_ííűé_ăđŕäčĺíň_67"></radialGradient></defs><g class="cls-1"><g id="Ńëîé_1" data-name="Ńëîé 1"><rect class="cls-2" width="800.71" height="400"></rect><path class="cls-3" d="M122.07,51.75a177.63,177.63,0,0,1,50.32-6.47q3.65,0,7.22.19C195.8,47,201.56,64.05,191.8,71.53c-4.48,3.43-9.88,3.39-12.19,3.38s-4.79-.17-7.22-.19a177.63,177.63,0,0,0-50.32,6.47c-14.75,3.59-15.62-11.39-10.46-20.56a18.58,18.58,0,0,1,10.46-8.88Z" transform="translate(99.41 0)"></path><path class="cls-4" d="M117.93,82.05c-3.91,0-6.12-1.67-7.35-3.3-3.55-4.68-2.26-12.91.75-18.27a18.92,18.92,0,0,1,10.64-9l.11.33-.1-.33c15.12-4.39,32.59-6.62,50.41-6.49,2.42,0,4.85.09,7.24.19,8.14.75,14.68,5.7,16.68,12.63a12.75,12.75,0,0,1-4.32,14c-4.57,3.5-10.05,3.45-12.38,3.44s-4.84-.17-7.23-.19h-1.64a176.75,176.75,0,0,0-48.58,6.46A17.92,17.92,0,0,1,117.93,82.05Zm4.23-30a18.37,18.37,0,0,0-10.28,8.73c-2.92,5.19-4.19,13.12-.8,17.59,2.16,2.86,5.94,3.72,10.91,2.51a177.57,177.57,0,0,1,48.76-6.48h1.64c2.39,0,4.82.09,7.24.19s7.58,0,12-3.31A12.16,12.16,0,0,0,195.71,58c-1.93-6.68-8.26-11.46-16.13-12.18-2.36-.1-4.79-.17-7.2-.19a177.3,177.3,0,0,0-50.22,6.46Z" transform="translate(99.41 0)"></path><path class="cls-4" d="M169.94,195.49a10.79,10.79,0,0,1-5.28-1.26l-35.5-20.5a3.44,3.44,0,0,1,0-6.48l35.31-20.53a11.69,11.69,0,0,1,10.56,0l35.5,20.5a3.44,3.44,0,0,1,0,6.48l-35.31,20.53A10.82,10.82,0,0,1,169.94,195.49Zm-.19-49.38a10.12,10.12,0,0,0-4.95,1.18l-35.31,20.53a2.8,2.8,0,0,0,0,5.34l35.5,20.5a11,11,0,0,0,9.9,0l35.31-20.54a2.79,2.79,0,0,0,0-5.33l-35.5-20.5A10.09,10.09,0,0,0,169.75,146.11Z" transform="translate(99.41 0)"></path><path class="cls-5" d="M212.66,159.25h0v-17l-21.51,2.87L175,135.8a11.31,11.31,0,0,0-10.23,0l-2.51,1.6-34.92,4.65v17.34h0a3.62,3.62,0,0,0,2.1,2.86L165,182.74a11.31,11.31,0,0,0,10.23,0l35.31-20.54a3.6,3.6,0,0,0,2.1-2.85h0Z" transform="translate(99.41 0)"></path><path class="cls-6" d="M210.54,139.15,175,118.65a11.31,11.31,0,0,0-10.23,0l-35.32,20.54c-2.82,1.63-2.82,4.27,0,5.9L165,165.59a11.31,11.31,0,0,0,10.23,0l35.31-20.53C213.37,143.43,213.37,140.78,210.54,139.15Z" transform="translate(99.41 0)"></path><path class="cls-7" d="M210.54,144l-35.31,20.54a11.31,11.31,0,0,1-10.23,0l-35.51-20.5a3.9,3.9,0,0,1-2.05-2.43c-.27,1.23.41,2.52,2.05,3.46L165,165.59a11.31,11.31,0,0,0,10.23,0l35.31-20.53c1.64-.95,2.32-2.24,2.06-3.47A3.89,3.89,0,0,1,210.54,144Z" transform="translate(99.41 0)"></path><polygon class="cls-7" points="279.41 170.13 277.73 171.1 277.73 169.16 279.41 168.19 279.41 170.13"></polygon><polygon class="cls-7" points="282.92 168.1 281.24 169.07 281.24 167.13 282.92 166.16 282.92 168.1"></polygon><polygon class="cls-7" points="286.44 166.07 284.76 167.04 284.76 165.1 286.44 164.13 286.44 166.07"></polygon><polygon class="cls-7" points="283.57 171.66 281.88 172.63 281.88 170.69 283.57 169.72 283.57 171.66"></polygon><polygon class="cls-7" points="286.66 169.88 284.98 170.85 284.98 168.91 286.66 167.94 286.66 169.88"></polygon><polygon class="cls-7" points="297.72 159.56 296.04 160.53 296.04 158.59 297.72 157.62 297.72 159.56"></polygon><polygon class="cls-7" points="307.4 153.97 305.72 154.94 305.72 153 307.4 152.03 307.4 153.97"></polygon><polygon class="cls-7" points="289.96 164.04 288.28 165.01 288.28 163.07 289.96 162.1 289.96 164.04"></polygon><path class="cls-8" d="M168,156.93l-23.89-13.79c-1-.56-.84-1.54.28-2.18l23.34-13.48a4.19,4.19,0,0,1,3.78-.16l23.89,13.79c1,.56.85,1.54-.27,2.19L171.8,156.78A4.24,4.24,0,0,1,168,156.93Z" transform="translate(99.41 0)"></path><path class="cls-7" d="M158.61,171.86,138.9,160.48a2,2,0,0,1-.85-1.63v-1.46c0-.63.38-.92.85-.65l19.71,11.38a2.05,2.05,0,0,1,.85,1.63v1.46C159.46,171.84,159.08,172.13,158.61,171.86Z" transform="translate(99.41 0)"></path><path class="cls-9" d="M212.66,127.32h0v-17l-21.51,2.87L175,103.87a11.31,11.31,0,0,0-10.23,0l-2.51,1.59-34.92,4.66v17.33h0a3.62,3.62,0,0,0,2.1,2.86L165,150.81a11.31,11.31,0,0,0,10.23,0l35.31-20.54a3.61,3.61,0,0,0,2.1-2.85h0Z" transform="translate(99.41 0)"></path><path class="cls-10" d="M210.54,107.22,175,86.72a11.31,11.31,0,0,0-10.23,0l-35.32,20.53c-2.82,1.64-2.82,4.28,0,5.91L165,133.66a11.31,11.31,0,0,0,10.23,0l35.31-20.54C213.37,111.49,213.37,108.85,210.54,107.22Z" transform="translate(99.41 0)"></path><path class="cls-8" d="M193.63,108.46,172.94,96.51a6.59,6.59,0,0,0-6,0l-20.57,12c-1.65,1-1.65,2.49,0,3.44l20.68,11.94a6.59,6.59,0,0,0,6,0l20.58-12C195.28,111,195.28,109.41,193.63,108.46Z" transform="translate(99.41 0)"></path><path class="cls-7" d="M210.54,112.09l-35.31,20.54a11.31,11.31,0,0,1-10.23,0l-35.51-20.5a3.94,3.94,0,0,1-2.05-2.44c-.27,1.24.41,2.52,2.05,3.47L165,133.66a11.31,11.31,0,0,0,10.23,0l35.31-20.54c1.64-.94,2.32-2.23,2.06-3.47A3.9,3.9,0,0,1,210.54,112.09Z" transform="translate(99.41 0)"></path><polygon class="cls-7" points="279.41 138.2 277.73 139.17 277.73 137.23 279.41 136.26 279.41 138.2"></polygon><polygon class="cls-7" points="282.92 136.17 281.24 137.14 281.24 135.2 282.92 134.23 282.92 136.17"></polygon><polygon class="cls-7" points="286.44 134.14 284.76 135.11 284.76 133.17 286.44 132.2 286.44 134.14"></polygon><polygon class="cls-7" points="283.57 139.73 281.88 140.7 281.88 138.76 283.57 137.79 283.57 139.73"></polygon><polygon class="cls-7" points="286.66 137.94 284.98 138.91 284.98 136.97 286.66 136 286.66 137.94"></polygon><polygon class="cls-7" points="297.72 127.63 296.04 128.6 296.04 126.66 297.72 125.69 297.72 127.63"></polygon><polygon class="cls-7" points="307.4 122.03 305.72 123.01 305.72 121.06 307.4 120.09 307.4 122.03"></polygon><polygon class="cls-7" points="289.96 132.11 288.28 133.08 288.28 131.14 289.96 130.17 289.96 132.11"></polygon><path class="cls-11" d="M212.66,95.39h0v-17l-21.51,2.87L175,71.93a11.31,11.31,0,0,0-10.23,0l-2.51,1.6-34.92,4.66V95.52h0a3.65,3.65,0,0,0,2.1,2.86L165,118.87a11.31,11.31,0,0,0,10.23,0l35.31-20.53a3.62,3.62,0,0,0,2.1-2.85h0Z" transform="translate(99.41 0)"></path><path class="cls-12" d="M210.54,75.28,175,54.79a11.25,11.25,0,0,0-10.23,0L129.49,75.32c-2.82,1.63-2.82,4.28,0,5.91L165,101.72a11.25,11.25,0,0,0,10.23,0l35.31-20.53C213.37,79.56,213.37,76.91,210.54,75.28Z" transform="translate(99.41 0)"></path><path class="cls-13" d="M210.54,75.28,175,54.79a11.25,11.25,0,0,0-10.23,0L129.49,75.32c-2.82,1.63-2.82,4.28,0,5.91L165,101.72a11.25,11.25,0,0,0,10.23,0l35.31-20.53C213.37,79.56,213.37,76.91,210.54,75.28Z" transform="translate(99.41 0)"></path><path class="cls-14" d="M170.08,95.08a7.35,7.35,0,0,1-3.62-.88L142.94,80.62a2.51,2.51,0,0,1,0-4.71l23.4-13.6a7.85,7.85,0,0,1,7.24,0L197.1,75.89a2.52,2.52,0,0,1,0,4.71L173.7,94.2A7.32,7.32,0,0,1,170.08,95.08ZM170,62.35a6.47,6.47,0,0,0-3.16.75L143.4,76.71a1.62,1.62,0,0,0,0,3.11l23.52,13.59a7,7,0,0,0,6.32,0l23.4-13.61a2,2,0,0,0,1.17-1.56,1.92,1.92,0,0,0-1.17-1.55L173.12,63.1A6.53,6.53,0,0,0,170,62.35Z" transform="translate(99.41 0)"></path><path class="cls-7" d="M210.54,80.16l-35.31,20.53a11.31,11.31,0,0,1-10.23,0L129.49,80.2a3.94,3.94,0,0,1-2.05-2.44c-.27,1.23.41,2.52,2.05,3.47L165,101.72a11.25,11.25,0,0,0,10.23,0l35.31-20.53c1.64-1,2.32-2.24,2.06-3.47A3.93,3.93,0,0,1,210.54,80.16Z" transform="translate(99.41 0)"></path><polygon class="cls-7" points="279.41 106.27 277.73 107.24 277.73 105.3 279.41 104.33 279.41 106.27"></polygon><polygon class="cls-7" points="282.92 104.23 281.24 105.21 281.24 103.27 282.92 102.3 282.92 104.23"></polygon><polygon class="cls-7" points="286.44 102.21 284.76 103.18 284.76 101.23 286.44 100.27 286.44 102.21"></polygon><polygon class="cls-7" points="283.57 107.8 281.88 108.77 281.88 106.83 283.57 105.86 283.57 107.8"></polygon><polygon class="cls-7" points="286.66 106.01 284.98 106.98 284.98 105.04 286.66 104.07 286.66 106.01"></polygon><polygon class="cls-7" points="297.72 95.69 296.04 96.66 296.04 94.72 297.72 93.75 297.72 95.69"></polygon><polygon class="cls-7" points="307.4 90.1 305.72 91.07 305.72 89.13 307.4 88.16 307.4 90.1"></polygon><polygon class="cls-7" points="289.96 100.17 288.28 101.15 288.28 99.2 289.96 98.23 289.96 100.17"></polygon><path class="cls-3" d="M176.18,142.76c-2.32.06-4.67.08-7,.06-18.51-.15-35.66-2.84-50-7.34C104.88,131.66,104,146.62,109,155.86a18.21,18.21,0,0,0,10.17,9.06c14.32,4.5,31.47,7.19,50,7.34,2.36,0,4.71,0,7-.06,16.8-1.24,21.2-17.38,13.35-24.91-2.19-2.1-6.28-4.59-13.35-4.53Z" transform="translate(99.41 0)"></path><g class="cls-15"><path class="cls-4" d="M263.17,124.41l-.25-.5a21.31,21.31,0,0,1-.85-2C259,112.74,249.82,104.47,235.68,98c-9.83-5.59-12.21-13.66-12.77-16.87-.67-3.79.09-9.15,3.34-12,2.38-2.08,5.63-2.47,9.66-1.17,14.34,6.62,23.58,15,26.75,24.29.67,2.61,1.19,4.66,1.2,13.92v15.7c0,1.37,0,1.46-.39,2.1ZM231.64,67.8a7.33,7.33,0,0,0-5,1.77c-3.06,2.67-3.77,7.78-3.13,11.4h0c.55,3.13,2.87,11,12.44,16.41,14.28,6.6,23.52,15,26.69,24.27.2.53.37,1,.53,1.35a8.05,8.05,0,0,0,0-1.17v-15.7c0-9.18-.52-11.19-1.17-13.74C259,83.3,249.82,75,235.68,68.5A13.26,13.26,0,0,0,231.64,67.8Z" transform="translate(99.41 0)"></path><path class="cls-4" d="M78.31,128.75l-.63,0V99.29c0-.26,0-.53,0-.79a24.71,24.71,0,0,1,5.52-14.19l.14-.14a5.38,5.38,0,0,1,2.53-1.7,3.26,3.26,0,0,1,3.26,1.85c2.9,4.63,2.64,17.91-5.42,29.8C79,120.49,78.7,124.14,78.31,128.75Zm-.63-.05.31,0Zm8.6-45.63-.31,0a5,5,0,0,0-2.18,1.53l-.1.11a24.05,24.05,0,0,0-5.37,13.8c0,.25,0,.5,0,.76v24.48c.6-2.86,1.84-5.87,4.9-10,7.9-11.66,8.21-24.61,5.4-29.11A2.91,2.91,0,0,0,86.28,83.07Z" transform="translate(99.41 0)"></path></g><path class="cls-4" d="M85,144.08c-.77,0-1.79-.42-2.91-1.94a24,24,0,0,1-4.42-13.39V99.29h.63a23.05,23.05,0,0,0,4.31,13c6.28,10.39,7,20.64,6.47,25.06h0c-.45,3.63-1.8,6.16-3.53,6.61A2.29,2.29,0,0,1,85,144.08Zm-6.7-39.66v24.31a23.41,23.41,0,0,0,4.3,13c.66.9,1.68,1.91,2.8,1.63,1.44-.38,2.64-2.76,3-6.08h0c.55-4.34-.19-14.42-6.37-24.64A25.71,25.71,0,0,1,78.31,104.42Z" transform="translate(99.41 0)"></path><path class="cls-4" d="M170.79,172.58h-1.64c-17.93-.15-35.24-2.69-50.07-7.36A18.48,18.48,0,0,1,108.73,156c-3-5.52-4.2-13.86-.58-18.45,1.59-2,4.82-4.06,11.11-2.39,14.78,4.66,32,7.19,49.89,7.34,2.37,0,4.74,0,7-.07h.25c7,0,11.12,2.51,13.33,4.63a13.41,13.41,0,0,1,3,14.28c-2.3,6.39-8.48,10.57-16.53,11.16C174.41,172.56,172.59,172.58,170.79,172.58ZM115,135.19a7.65,7.65,0,0,0-6.32,2.76c-3.46,4.38-2.25,12.42.63,17.76,3.5,6.47,8.22,8.25,10,8.91,14.76,4.65,32,7.18,49.87,7.33,2.34,0,4.7,0,7-.07,7.79-.57,13.76-4.59,16-10.75a12.78,12.78,0,0,0-2.84-13.61c-2.15-2.06-6.13-4.5-13.12-4.45-2.3.06-4.66.09-7,.07-17.93-.15-35.24-2.69-50.07-7.36A15.79,15.79,0,0,0,115,135.19Z" transform="translate(99.41 0)"></path><path class="cls-4" d="M229.26,161.82a8.53,8.53,0,0,1-6.9-3.08c-3.22-3.93-3.3-11.06-.18-17a25.26,25.26,0,0,1,11-10.63c14.67-6.3,24.44-14.4,28.28-23.46a16.33,16.33,0,0,1,1.11-2l.08-.11.72-.1.08.24c.26.72.36,1,.39,4.54v9.06c-.08,12.78-.83,15.12-1.79,18.08-3.91,9.24-13.8,17.46-28.6,23.81A15.07,15.07,0,0,1,229.26,161.82ZM263,106.21A18.54,18.54,0,0,0,262,108c-3.9,9.2-13.79,17.42-28.59,23.77a24.71,24.71,0,0,0-10.72,10.35c-3,5.68-2.95,12.52.11,16.26,1.6,1.95,4.7,3.92,10.4,2.23,14.61-6.26,24.38-14.37,28.22-23.43.93-2.88,1.67-5.18,1.75-17.86v-9A15.56,15.56,0,0,0,263,106.21Z" transform="translate(99.41 0)"></path><path class="cls-3" d="M219.63,322l-38.49-22.22c-2.18-1.26-3.95-4.63-3.95-7.54v-72.9c0-2.9,1.77-4.24,3.95-3l38.49,22.22c2.18,1.26,3.94,4.63,3.94,7.54V319C223.57,321.93,221.81,323.26,219.63,322Z" transform="translate(99.41 0)"></path><path class="cls-4" d="M221.2,322.8a3.41,3.41,0,0,1-1.73-.52L181,300.06c-2.27-1.31-4.11-4.82-4.11-7.82v-72.9a3.82,3.82,0,0,1,1.52-3.47,2.86,2.86,0,0,1,2.91.21l38.49,22.22c2.26,1.31,4.1,4.82,4.1,7.82V319a3.82,3.82,0,0,1-1.52,3.47A2.28,2.28,0,0,1,221.2,322.8Zm-1.41-1.08a2.24,2.24,0,0,0,2.26.21,3.22,3.22,0,0,0,1.2-2.91v-72.9c0-2.8-1.7-6.05-3.78-7.26L181,216.64a2.24,2.24,0,0,0-2.26-.21,3.2,3.2,0,0,0-1.21,2.91v72.9c0,2.8,1.7,6.06,3.79,7.26Z" transform="translate(99.41 0)"></path><path class="cls-3" d="M120.41,322l38.49-22.22c2.18-1.26,3.95-4.63,3.95-7.54v-72.9c0-2.9-1.77-4.24-3.95-3l-38.49,22.22c-2.18,1.26-3.94,4.63-3.94,7.54V319C116.47,321.93,118.23,323.26,120.41,322Z" transform="translate(99.41 0)"></path><path class="cls-4" d="M118.84,322.8a2.28,2.28,0,0,1-1.17-.31,3.82,3.82,0,0,1-1.52-3.47v-72.9c0-3,1.84-6.51,4.1-7.82l38.49-22.22a2.86,2.86,0,0,1,2.91-.21,3.82,3.82,0,0,1,1.52,3.47v72.9c0,3-1.84,6.51-4.11,7.82l-38.49,22.22A3.41,3.41,0,0,1,118.84,322.8Zm41.63-106.59a2.85,2.85,0,0,0-1.41.43l-38.49,22.22c-2.08,1.21-3.78,4.46-3.78,7.26V319a3.22,3.22,0,0,0,1.2,2.91,2.24,2.24,0,0,0,2.26-.21l38.49-22.22c2.09-1.2,3.79-4.46,3.79-7.26v-72.9a3.2,3.2,0,0,0-1.21-2.91A1.63,1.63,0,0,0,160.47,216.21Z" transform="translate(99.41 0)"></path><path class="cls-4" d="M169,363.57a10.52,10.52,0,0,1-5.15-1.23l-34.63-20a3.35,3.35,0,0,1,0-6.32l34.44-20a11.43,11.43,0,0,1,10.3,0l34.63,20a3.35,3.35,0,0,1,0,6.32l-34.44,20A10.54,10.54,0,0,1,169,363.57Zm-.19-48.16a9.82,9.82,0,0,0-4.82,1.15l-34.45,20a2.73,2.73,0,0,0,0,5.2l34.63,20a10.66,10.66,0,0,0,9.65,0l34.45-20a2.74,2.74,0,0,0,0-5.21l-34.63-20A9.86,9.86,0,0,0,168.83,315.41Z" transform="translate(99.41 0)"></path><path class="cls-16" d="M210.69,328.23h0v-16.6l-21,2.8L174,305.36a11,11,0,0,0-10,0l-2.44,1.55-34.06,4.55v16.9h0a3.55,3.55,0,0,0,2,2.79l34.63,20a11,11,0,0,0,10,0l34.44-20a3.54,3.54,0,0,0,2-2.78h0Z" transform="translate(99.41 0)"></path><path class="cls-17" d="M208.62,308.62l-34.63-20a11,11,0,0,0-10,0l-34.44,20c-2.75,1.59-2.75,4.17,0,5.76l34.63,20a11,11,0,0,0,10,0l34.44-20C211.37,312.79,211.37,310.21,208.62,308.62Z" transform="translate(99.41 0)"></path><path class="cls-7" d="M208.62,313.38l-34.44,20a11,11,0,0,1-10,0l-34.63-20a3.83,3.83,0,0,1-2-2.37c-.25,1.2.41,2.46,2,3.38l34.63,20a11,11,0,0,0,10,0l34.44-20c1.6-.92,2.26-2.18,2-3.38A3.82,3.82,0,0,1,208.62,313.38Z" transform="translate(99.41 0)"></path><polygon class="cls-7" points="278.24 338.84 276.6 339.79 276.6 337.89 278.24 336.95 278.24 338.84"></polygon><polygon class="cls-7" points="281.67 336.86 280.03 337.81 280.03 335.91 281.67 334.97 281.67 336.86"></polygon><polygon class="cls-7" points="285.1 334.88 283.46 335.83 283.46 333.93 285.1 332.99 285.1 334.88"></polygon><polygon class="cls-7" points="282.29 340.33 280.65 341.28 280.65 339.39 282.29 338.44 282.29 340.33"></polygon><polygon class="cls-7" points="285.31 338.59 283.67 339.54 283.67 337.64 285.31 336.7 285.31 338.59"></polygon><polygon class="cls-7" points="296.1 328.53 294.46 329.48 294.46 327.58 296.1 326.64 296.1 328.53"></polygon><polygon class="cls-7" points="305.54 323.07 303.9 324.02 303.9 322.13 305.54 321.18 305.54 323.07"></polygon><polygon class="cls-7" points="288.53 332.9 286.89 333.85 286.89 331.95 288.53 331.01 288.53 332.9"></polygon><path class="cls-8" d="M167.14,326l-23.3-13.45c-1-.55-.83-1.51.26-2.14l22.77-13.14a4.09,4.09,0,0,1,3.69-.15l23.3,13.45c.95.54.83,1.5-.27,2.13l-22.76,13.14A4.12,4.12,0,0,1,167.14,326Z" transform="translate(99.41 0)"></path><path class="cls-7" d="M158,340.52l-19.22-11.09a2,2,0,0,1-.83-1.59v-1.43c0-.61.37-.89.83-.63L158,336.88a2,2,0,0,1,.83,1.59v1.43C158.8,340.51,158.43,340.79,158,340.52Z" transform="translate(99.41 0)"></path><path class="cls-18" d="M210.69,297.08h0v-16.6l-21,2.8L174,274.21a11,11,0,0,0-10,0l-2.44,1.56-34.06,4.54v16.9h0a3.54,3.54,0,0,0,2,2.79l34.63,20a11,11,0,0,0,10,0l34.44-20a3.54,3.54,0,0,0,2-2.78h0Z" transform="translate(99.41 0)"></path><path class="cls-19" d="M208.62,277.48l-34.63-20a11,11,0,0,0-10,0l-34.44,20c-2.75,1.59-2.75,4.17,0,5.76l34.63,20a11,11,0,0,0,10,0l34.44-20C211.37,281.65,211.37,279.07,208.62,277.48Z" transform="translate(99.41 0)"></path><path class="cls-8" d="M192.12,278.69,172,267a6.42,6.42,0,0,0-5.82,0l-20.06,11.67c-1.61.92-1.61,2.43,0,3.35l20.17,11.65a6.42,6.42,0,0,0,5.82,0L192.12,282C193.73,281.12,193.73,279.61,192.12,278.69Z" transform="translate(99.41 0)"></path><path class="cls-7" d="M208.62,282.23l-34.44,20a11,11,0,0,1-10,0l-34.63-20a3.87,3.87,0,0,1-2-2.38c-.25,1.2.41,2.46,2,3.38l34.63,20a11,11,0,0,0,10,0l34.44-20c1.6-.93,2.26-2.18,2-3.39A3.82,3.82,0,0,1,208.62,282.23Z" transform="translate(99.41 0)"></path><polygon class="cls-7" points="278.24 307.69 276.6 308.64 276.6 306.75 278.24 305.8 278.24 307.69"></polygon><polygon class="cls-7" points="281.67 305.71 280.03 306.66 280.03 304.77 281.67 303.82 281.67 305.71"></polygon><polygon class="cls-7" points="285.1 303.74 283.46 304.68 283.46 302.79 285.1 301.84 285.1 303.74"></polygon><polygon class="cls-7" points="282.29 309.19 280.65 310.13 280.65 308.24 282.29 307.3 282.29 309.19"></polygon><polygon class="cls-7" points="285.31 307.45 283.67 308.39 283.67 306.5 285.31 305.55 285.31 307.45"></polygon><polygon class="cls-7" points="296.1 297.38 294.46 298.33 294.46 296.44 296.1 295.49 296.1 297.38"></polygon><polygon class="cls-7" points="305.54 291.93 303.9 292.88 303.9 290.98 305.54 290.04 305.54 291.93"></polygon><polygon class="cls-7" points="288.53 301.75 286.89 302.7 286.89 300.81 288.53 299.86 288.53 301.75"></polygon><path class="cls-20" d="M210.69,265.94h0v-16.6l-21,2.8L174,243.06a11,11,0,0,0-10,0l-2.44,1.56-34.06,4.54v16.91h0a3.52,3.52,0,0,0,2,2.79l34.63,20a11,11,0,0,0,10,0l34.44-20a3.54,3.54,0,0,0,2-2.78h0Z" transform="translate(99.41 0)"></path><path class="cls-21" d="M208.62,246.33l-34.63-20a11,11,0,0,0-10,0l-34.44,20c-2.75,1.59-2.75,4.17,0,5.76l34.63,20a11,11,0,0,0,10,0l34.44-20C211.37,250.5,211.37,247.92,208.62,246.33Z" transform="translate(99.41 0)"></path><path class="cls-7" d="M208.62,251.09l-34.44,20a11,11,0,0,1-10,0l-34.63-20a3.85,3.85,0,0,1-2-2.37c-.25,1.2.41,2.45,2,3.38l34.63,20a11,11,0,0,0,10,0l34.44-20c1.6-.92,2.26-2.18,2-3.38A3.82,3.82,0,0,1,208.62,251.09Z" transform="translate(99.41 0)"></path><polygon class="cls-7" points="278.24 276.55 276.6 277.5 276.6 275.6 278.24 274.66 278.24 276.55"></polygon><polygon class="cls-7" points="281.67 274.57 280.03 275.52 280.03 273.62 281.67 272.68 281.67 274.57"></polygon><polygon class="cls-7" points="285.1 272.59 283.46 273.54 283.46 271.64 285.1 270.7 285.1 272.59"></polygon><polygon class="cls-7" points="282.29 278.04 280.65 278.99 280.65 277.1 282.29 276.15 282.29 278.04"></polygon><polygon class="cls-7" points="285.31 276.3 283.67 277.25 283.67 275.35 285.31 274.41 285.31 276.3"></polygon><polygon class="cls-7" points="296.1 266.24 294.46 267.19 294.46 265.29 296.1 264.35 296.1 266.24"></polygon><polygon class="cls-7" points="305.54 260.78 303.9 261.73 303.9 259.84 305.54 258.89 305.54 260.78"></polygon><polygon class="cls-7" points="288.53 270.61 286.89 271.56 286.89 269.66 288.53 268.72 288.53 270.61"></polygon><path class="cls-7" d="M158,310.07,138.75,299a2,2,0,0,1-.83-1.59V296c0-.61.37-.89.83-.63L158,306.43a2,2,0,0,1,.83,1.59v1.43C158.8,310.06,158.43,310.34,158,310.07Z" transform="translate(99.41 0)"></path><path class="cls-7" d="M158,279.62l-19.22-11.09a2,2,0,0,1-.83-1.59v-1.43c0-.61.37-.89.83-.63L158,276a2,2,0,0,1,.83,1.59V279C158.8,279.61,158.43,279.89,158,279.62Z" transform="translate(99.41 0)"></path><circle class="cls-22" cx="519.64" cy="138.04" r="80.25"></circle><rect class="cls-23" x="541.86" y="101.97" width="1.96" height="1.96"></rect><rect class="cls-24" x="546.03" y="101.97" width="1.96" height="1.96"></rect><rect class="cls-25" x="550.2" y="101.97" width="1.96" height="1.96"></rect><rect class="cls-24" x="554.38" y="101.97" width="1.96" height="1.96"></rect><rect class="cls-24" x="567.66" y="101.97" width="1.96" height="1.96"></rect><rect class="cls-23" x="554.38" y="115.95" width="1.96" height="1.96"></rect><rect class="cls-24" x="454.97" y="124.7" width="1.96" height="1.96" transform="translate(1011.31 251.37) rotate(180)"></rect><rect class="cls-25" x="454.97" y="128.68" width="1.96" height="1.96" transform="translate(1011.31 259.31) rotate(180)"></rect><rect class="cls-24" x="454.97" y="132.65" width="1.96" height="1.96" transform="translate(1011.31 267.26) rotate(180)"></rect><rect class="cls-23" x="464.53" y="127.22" width="1.96" height="1.96" transform="translate(1030.42 256.39) rotate(180)"></rect><rect class="cls-24" x="467.85" y="124.2" width="1.96" height="1.96" transform="translate(1037.06 250.36) rotate(180)"></rect><rect class="cls-25" x="571.83" y="101.97" width="1.96" height="1.96"></rect><rect class="cls-25" x="391.7" y="132.27" width="1.96" height="1.96" transform="translate(884.76 266.5) rotate(180)"></rect><rect class="cls-24" x="387.52" y="132.27" width="1.96" height="1.96" transform="translate(876.41 266.5) rotate(180)"></rect><rect class="cls-24" x="373.27" y="111.59" width="1.96" height="1.96" transform="translate(847.9 225.13) rotate(180)"></rect><rect class="cls-24" x="373.27" y="107.53" width="1.96" height="1.96" transform="translate(847.9 217.02) rotate(180)"></rect><rect class="cls-24" x="373.27" y="103.47" width="1.96" height="1.96" transform="translate(847.9 208.9) rotate(180)"></rect><rect class="cls-24" x="374.25" y="132.27" width="1.96" height="1.96" transform="translate(849.86 266.5) rotate(180)"></rect><rect class="cls-23" x="387.52" y="118.29" width="1.96" height="1.96" transform="translate(876.41 238.54) rotate(180)"></rect><rect class="cls-24" x="486.93" y="109.54" width="1.96" height="1.96"></rect><rect class="cls-25" x="486.93" y="105.57" width="1.96" height="1.96"></rect><rect class="cls-24" x="486.93" y="101.59" width="1.96" height="1.96"></rect><rect class="cls-25" x="370.07" y="132.27" width="1.96" height="1.96" transform="translate(841.51 266.5) rotate(180)"></rect><rect class="cls-26" x="426.28" y="257.25" width="0.46" height="8.95"></rect><rect class="cls-4" x="426.28" y="268.3" width="0.46" height="2.87"></rect><rect class="cls-4" x="599.92" y="97.44" width="0.45" height="8.95"></rect><rect class="cls-26" x="599.92" y="108.45" width="0.45" height="2.56"></rect><rect class="cls-26" x="599.92" y="113.15" width="0.45" height="2.56"></rect><rect class="cls-26" x="618.43" y="233.22" width="0.45" height="8.95"></rect><rect class="cls-4" x="618.43" y="244.23" width="0.45" height="2.56"></rect><rect class="cls-4" x="618.43" y="248.93" width="0.45" height="2.56"></rect><rect class="cls-4" x="618.43" y="253.63" width="0.45" height="7.26"></rect><rect class="cls-26" x="421.84" y="220.94" width="0.46" height="2.87"></rect><rect class="cls-26" x="421.84" y="198.15" width="0.46" height="9.08"></rect><rect class="cls-26" x="441.38" y="163.48" width="0.46" height="2.87"></rect><rect class="cls-4" x="441.38" y="152.43" width="0.46" height="8.95"></rect><rect class="cls-26" x="441.38" y="140.69" width="0.46" height="9.08"></rect><rect class="cls-26" x="441.38" y="127.21" width="0.46" height="9.08"></rect><polygon class="cls-27" points="476.03 240.6 476.03 341.91 561.1 341.91 561.1 242.33 476.03 240.6"></polygon><polygon class="cls-28" points="476.03 240.6 476.03 341.91 476.93 341.91 476.93 242.33 476.03 240.6"></polygon><polygon class="cls-29" points="560.2 240.6 560.2 341.91 561.1 341.91 561.1 242.33 560.2 240.6"></polygon><circle class="cls-30" cx="518.86" cy="149.64" r="80.98"></circle><circle class="cls-31" cx="495.52" cy="191.1" r="1.25"></circle><path class="cls-31" d="M415.56,172.68a4.94,4.94,0,1,1-4.94-4.93A4.94,4.94,0,0,1,415.56,172.68Z" transform="translate(99.41 0)"></path><path class="cls-32" d="M412.67,172.68a2.05,2.05,0,1,1-2.05-2.05A2,2,0,0,1,412.67,172.68Z" transform="translate(99.41 0)"></path><path class="cls-33" d="M393.64,165.37a2.53,2.53,0,1,1-2.53-2.53A2.52,2.52,0,0,1,393.64,165.37Z" transform="translate(99.41 0)"></path><path class="cls-34" d="M392.35,165.37a1.24,1.24,0,1,1-1.24-1.25A1.24,1.24,0,0,1,392.35,165.37Z" transform="translate(99.41 0)"></path><path class="cls-33" d="M372.17,253.53a.77.77,0,1,1-.76-.77A.76.76,0,0,1,372.17,253.53Z" transform="translate(99.41 0)"></path><path class="cls-3" d="M363.5,118.71c17-4.94,37.2-7.73,58.71-7.55,2.84,0,5.65.1,8.43.22,18.9,1.73,25.62,21.68,14.23,30.41-5.23,4-11.53,4-14.23,4s-5.59-.2-8.43-.23c-21.51-.17-41.67,2.61-58.71,7.55-17.21,4.2-18.23-13.29-12.21-24a21.8,21.8,0,0,1,12.21-10.36Z" transform="translate(99.41 0)"></path><path class="cls-4" d="M358.66,154.07c-4.55,0-7.13-1.95-8.57-3.85-4.15-5.47-2.64-15.07.88-21.33a22.14,22.14,0,0,1,12.42-10.53h0c17.65-5.12,38-7.77,58.83-7.57,2.82,0,5.66.1,8.44.22,9.5.87,17.13,6.66,19.47,14.74a14.88,14.88,0,0,1-5,16.33c-5.33,4.09-11.72,4-14.45,4s-5.62-.19-8.43-.22c-20.74-.14-41,2.44-58.61,7.54A21.11,21.11,0,0,1,358.66,154.07Zm4.94-35a21.42,21.42,0,0,0-12,10.2c-3.4,6.05-4.89,15.3-.94,20.52,2.53,3.33,6.94,4.34,12.74,2.93,17.63-5.12,38-7.75,58.81-7.56,2.81,0,5.65.09,8.44.22,2.63,0,8.85.06,14-3.87A14.14,14.14,0,0,0,449.42,126c-2.25-7.8-9.63-13.37-18.81-14.21-2.75-.13-5.59-.2-8.4-.22C401.45,111.37,381.18,114,363.6,119.06Z" transform="translate(99.41 0)"></path><path class="cls-4" d="M419.36,286.44A12.56,12.56,0,0,1,413.2,285l-41.43-23.92c-1.72-1-2.67-2.33-2.67-3.78s.95-2.79,2.67-3.78l41.21-24a13.64,13.64,0,0,1,12.32,0l41.42,23.92c1.72,1,2.67,2.33,2.67,3.78s-.95,2.78-2.67,3.78l-41.2,24A12.61,12.61,0,0,1,419.36,286.44Zm-.22-57.62a11.82,11.82,0,0,0-5.78,1.38l-41.21,24c-1.47.85-2.28,2-2.28,3.11s.81,2.26,2.28,3.11l41.43,23.92a12.77,12.77,0,0,0,11.55,0l41.21-24c1.47-.85,2.28-2,2.28-3.11s-.81-2.27-2.28-3.11L424.91,230.2A11.78,11.78,0,0,0,419.14,228.82Z" transform="translate(99.41 0)"></path><path class="cls-35" d="M419.36,300.26a12.45,12.45,0,0,1-6.16-1.48l-41.43-23.91c-1.72-1-2.67-2.34-2.67-3.78s.95-2.79,2.67-3.78l41.21-24a13.58,13.58,0,0,1,12.32,0l41.42,23.91c1.72,1,2.67,2.34,2.67,3.78s-.95,2.79-2.67,3.78l-41.2,24A12.5,12.5,0,0,1,419.36,300.26Zm-.22-57.63a11.82,11.82,0,0,0-5.78,1.38l-41.21,24c-1.47.85-2.28,2-2.28,3.12s.81,2.26,2.28,3.11l41.43,23.92a12.77,12.77,0,0,0,11.55,0l41.21-24c1.47-.85,2.28-2,2.28-3.12s-.81-2.26-2.28-3.11L424.91,244A11.78,11.78,0,0,0,419.14,242.63Z" transform="translate(99.41 0)"></path><path class="cls-33" d="M466.53,281.41,425.11,257.5a13.16,13.16,0,0,0-11.94,0l-41.21,24c-3.3,1.9-3.3,5,0,6.89l41.43,23.92a13.2,13.2,0,0,0,11.93,0l41.21-24C469.83,286.4,469.83,283.32,466.53,281.41Z" transform="translate(99.41 0)"></path><path class="cls-36" d="M469.21,244.15h0V224.29l-25.1,3.35-18.79-10.85a13.22,13.22,0,0,0-11.94,0l-2.93,1.86-40.75,5.44v20.22h0a4.22,4.22,0,0,0,2.45,3.33l41.43,23.92a13.16,13.16,0,0,0,11.94,0l41.21-24a4.25,4.25,0,0,0,2.45-3.33h0Z" transform="translate(99.41 0)"></path><path class="cls-37" d="M466.74,220.7l-41.43-23.92a13.22,13.22,0,0,0-11.94,0l-41.21,24c-3.29,1.9-3.29,5,0,6.89l41.43,23.92a13.22,13.22,0,0,0,11.94,0l41.21-24C470,225.69,470,222.6,466.74,220.7Z" transform="translate(99.41 0)"></path><path class="cls-7" d="M466.74,226.39l-41.21,24a13.22,13.22,0,0,1-11.94,0l-41.43-23.92a4.6,4.6,0,0,1-2.4-2.84c-.31,1.44.49,2.94,2.4,4l41.43,23.92a13.22,13.22,0,0,0,11.94,0l41.21-24c1.91-1.11,2.7-2.61,2.4-4.05A4.62,4.62,0,0,1,466.74,226.39Z" transform="translate(99.41 0)"></path><polygon class="cls-7" points="530.5 256.85 528.54 257.98 528.54 255.72 530.5 254.59 530.5 256.85"></polygon><polygon class="cls-7" points="534.61 254.48 532.65 255.61 532.65 253.35 534.61 252.22 534.61 254.48"></polygon><polygon class="cls-7" points="538.71 252.11 536.75 253.25 536.75 250.98 538.71 249.85 538.71 252.11"></polygon><polygon class="cls-7" points="535.36 258.64 533.39 259.77 533.39 257.51 535.36 256.37 535.36 258.64"></polygon><polygon class="cls-7" points="538.97 256.55 537.01 257.69 537.01 255.42 538.97 254.29 538.97 256.55"></polygon><polygon class="cls-7" points="551.87 244.51 549.91 245.65 549.91 243.38 551.87 242.25 551.87 244.51"></polygon><polygon class="cls-7" points="563.17 237.99 561.21 239.12 561.21 236.86 563.17 235.72 563.17 237.99"></polygon><polygon class="cls-7" points="542.81 249.74 540.85 250.88 540.85 248.61 542.81 247.48 542.81 249.74"></polygon><path class="cls-8" d="M417.11,241.45l-27.88-16.09c-1.13-.66-1-1.8.32-2.56l27.24-15.72a4.88,4.88,0,0,1,4.42-.18L449.08,223c1.13.65,1,1.79-.32,2.55l-27.23,15.72A4.91,4.91,0,0,1,417.11,241.45Z" transform="translate(99.41 0)"></path><path class="cls-7" d="M406.14,258.86l-23-13.27a2.38,2.38,0,0,1-1-1.9V242c0-.73.44-1.07,1-.75l23,13.28a2.35,2.35,0,0,1,1,1.9v1.7C407.13,258.85,406.69,259.18,406.14,258.86Z" transform="translate(99.41 0)"></path><path class="cls-38" d="M469.21,206.89h0V187l-25.1,3.35-18.79-10.85a13.16,13.16,0,0,0-11.94,0l-2.93,1.86-40.75,5.43v20.23h0a4.22,4.22,0,0,0,2.45,3.34l41.43,23.92a13.22,13.22,0,0,0,11.94,0l41.21-24a4.25,4.25,0,0,0,2.45-3.33h0Z" transform="translate(99.41 0)"></path><path class="cls-39" d="M466.74,183.44l-41.43-23.92a13.16,13.16,0,0,0-11.94,0l-41.21,24c-3.29,1.9-3.29,5,0,6.89l41.43,23.92a13.22,13.22,0,0,0,11.94,0l41.21-24C470,188.42,470,185.34,466.74,183.44Z" transform="translate(99.41 0)"></path><path class="cls-8" d="M447,184.88,422.86,171a7.67,7.67,0,0,0-6.95,0l-24,14c-1.92,1.11-1.92,2.91,0,4L416,202.86a7.67,7.67,0,0,0,6.95,0l24-14C448.92,187.79,448.92,186,447,184.88Z" transform="translate(99.41 0)"></path><path class="cls-7" d="M466.74,189.12l-41.21,24a13.16,13.16,0,0,1-11.94,0l-41.43-23.91a4.62,4.62,0,0,1-2.4-2.85c-.31,1.44.49,3,2.4,4.05l41.43,23.92a13.22,13.22,0,0,0,11.94,0l41.21-24c1.91-1.11,2.7-2.61,2.4-4.05A4.58,4.58,0,0,1,466.74,189.12Z" transform="translate(99.41 0)"></path><polygon class="cls-7" points="530.5 219.59 528.54 220.72 528.54 218.46 530.5 217.32 530.5 219.59"></polygon><polygon class="cls-7" points="534.61 217.22 532.65 218.35 532.65 216.09 534.61 214.96 534.61 217.22"></polygon><polygon class="cls-7" points="538.71 214.85 536.75 215.98 536.75 213.72 538.71 212.59 538.71 214.85"></polygon><polygon class="cls-7" points="535.36 221.38 533.39 222.51 533.39 220.24 535.36 219.11 535.36 221.38"></polygon><polygon class="cls-7" points="538.97 219.29 537.01 220.42 537.01 218.16 538.97 217.03 538.97 219.29"></polygon><polygon class="cls-7" points="551.87 207.25 549.91 208.38 549.91 206.12 551.87 204.99 551.87 207.25"></polygon><polygon class="cls-7" points="563.17 200.73 561.21 201.86 561.21 199.59 563.17 198.46 563.17 200.73"></polygon><polygon class="cls-7" points="542.81 212.48 540.85 213.61 540.85 211.35 542.81 210.22 542.81 212.48"></polygon><path class="cls-40" d="M469.21,169.63h0V149.77l-25.1,3.35-18.79-10.85a13.16,13.16,0,0,0-11.94,0l-2.93,1.86-40.75,5.43v20.22h0a4.24,4.24,0,0,0,2.45,3.34L413.59,197a13.22,13.22,0,0,0,11.94,0l41.21-24a4.23,4.23,0,0,0,2.45-3.32h0Z" transform="translate(99.41 0)"></path><path class="cls-41" d="M466.74,146.17l-41.43-23.91a13.16,13.16,0,0,0-11.94,0l-41.21,24c-3.29,1.9-3.29,5,0,6.89L413.59,177a13.22,13.22,0,0,0,11.94,0l41.21-24C470,151.16,470,148.08,466.74,146.17Z" transform="translate(99.41 0)"></path><path class="cls-42" d="M466.74,146.17l-41.43-23.91a13.16,13.16,0,0,0-11.94,0l-41.21,24c-3.29,1.9-3.29,5,0,6.89L413.59,177a13.22,13.22,0,0,0,11.94,0l41.21-24C470,151.16,470,148.08,466.74,146.17Z" transform="translate(99.41 0)"></path><path class="cls-14" d="M419.52,169.28a8.51,8.51,0,0,1-4.22-1l-27.45-15.84a2.93,2.93,0,0,1,0-5.5L415.15,131a9.2,9.2,0,0,1,8.45,0l27.45,15.85a2.93,2.93,0,0,1,0,5.5l-27.3,15.87A8.58,8.58,0,0,1,419.52,169.28Zm-.14-38.2a7.51,7.51,0,0,0-3.69.88l-27.3,15.88a1.89,1.89,0,0,0,0,3.63l27.45,15.85a8.18,8.18,0,0,0,7.37,0l27.3-15.87a2.31,2.31,0,0,0,1.37-1.82,2.28,2.28,0,0,0-1.37-1.82L423.06,132A7.47,7.47,0,0,0,419.38,131.08Z" transform="translate(99.41 0)"></path><path class="cls-7" d="M466.74,151.86l-41.21,24a13.16,13.16,0,0,1-11.94,0l-41.43-23.91a4.62,4.62,0,0,1-2.4-2.85c-.31,1.44.49,2.94,2.4,4.05L413.59,177a13.22,13.22,0,0,0,11.94,0l41.21-24c1.91-1.1,2.7-2.6,2.4-4A4.6,4.6,0,0,1,466.74,151.86Z" transform="translate(99.41 0)"></path><polygon class="cls-7" points="530.5 182.33 528.54 183.46 528.54 181.19 530.5 180.06 530.5 182.33"></polygon><polygon class="cls-7" points="534.61 179.96 532.65 181.09 532.65 178.82 534.61 177.69 534.61 179.96"></polygon><polygon class="cls-7" points="538.71 177.59 536.75 178.72 536.75 176.46 538.71 175.32 538.71 177.59"></polygon><polygon class="cls-7" points="535.36 184.11 533.39 185.25 533.39 182.98 535.36 181.85 535.36 184.11"></polygon><polygon class="cls-7" points="538.97 182.03 537.01 183.16 537.01 180.9 538.97 179.76 538.97 182.03"></polygon><polygon class="cls-7" points="551.87 169.99 549.91 171.12 549.91 168.86 551.87 167.73 551.87 169.99"></polygon><polygon class="cls-7" points="563.17 163.47 561.21 164.6 561.21 162.33 563.17 161.2 563.17 163.47"></polygon><polygon class="cls-7" points="542.81 175.22 540.85 176.35 540.85 174.09 542.81 172.96 542.81 175.22"></polygon><path class="cls-3" d="M426.64,224.91q-4.06.1-8.21.07c-21.6-.17-41.61-3.31-58.31-8.57-16.68-4.45-17.69,13-11.87,23.79,4.15,7.67,9.76,9.78,11.87,10.57,16.7,5.25,36.71,8.39,58.31,8.57q4.14,0,8.21-.08c19.61-1.45,24.74-20.27,15.58-29.06-2.56-2.45-7.34-5.36-15.58-5.29Z" transform="translate(99.41 0)"></path><g class="cls-15"><path class="cls-4" d="M528.15,203.5l-.3-.59a25.85,25.85,0,0,1-1-2.39c-3.64-10.64-14.29-20.28-30.79-27.9-11.47-6.52-14.24-15.93-14.91-19.68h0c-.78-4.42.11-10.69,3.91-14,2.78-2.43,6.57-2.89,11.27-1.37,16.73,7.72,27.51,17.52,31.21,28.34.78,3.05,1.39,5.44,1.4,16.25v18.31c0,1.61,0,1.71-.46,2.46Zm-36.8-66.06a8.54,8.54,0,0,0-5.8,2.06c-3.58,3.12-4.41,9.09-3.66,13.31h0c.64,3.65,3.35,12.81,14.52,19.15,16.66,7.69,27.44,17.49,31.14,28.32.23.62.44,1.14.62,1.57a10.81,10.81,0,0,0,0-1.37V182.17c0-10.72-.6-13.06-1.36-16-3.63-10.6-14.28-20.25-30.78-27.87A15.43,15.43,0,0,0,491.35,137.44Z" transform="translate(99.41 0)"></path><path class="cls-4" d="M312.43,208.57l-.73,0V174.18c0-.3,0-.61,0-.91.21-5.7,2.38-11.27,6.44-16.56l.16-.17a6.27,6.27,0,0,1,2.95-2c1.48-.21,2.79.53,3.81,2.15,3.38,5.41,3.08,20.91-6.32,34.78C313.27,198.93,312.9,203.18,312.43,208.57Zm-.73-.06.37,0Zm10-53.25-.37,0a5.84,5.84,0,0,0-2.53,1.77l-.13.13a28.12,28.12,0,0,0-6.26,16.1c0,.3,0,.6,0,.89v28.57c.71-3.34,2.16-6.85,5.73-11.68,9.21-13.61,9.57-28.72,6.29-34A3.38,3.38,0,0,0,321.74,155.26Z" transform="translate(99.41 0)"></path></g><path class="cls-4" d="M320.26,226.45c-.91,0-2.1-.48-3.4-2.26-4.47-6.11-4.9-12.07-5.16-15.63V174.18h.73a27,27,0,0,0,5,15.23c7.33,12.12,8.2,24.08,7.56,29.25h0c-.53,4.23-2.11,7.18-4.12,7.7A2.53,2.53,0,0,1,320.26,226.45Zm-7.83-46.27v28.36c.26,3.45.68,9.27,5,15.21.77,1.06,2,2.24,3.26,1.9,1.68-.44,3.09-3.22,3.57-7.09h0c.63-5.06-.23-16.82-7.45-28.75A30.14,30.14,0,0,1,312.43,180.18Z" transform="translate(99.41 0)"></path><path class="cls-4" d="M420.36,259.71h-1.93c-20.92-.17-41.12-3.14-58.42-8.58-2.17-.81-7.87-3-12.08-10.75-3.48-6.44-4.9-16.17-.67-21.52,1.86-2.36,5.61-4.75,13-2.79,17.24,5.43,37.37,8.38,58.22,8.56,2.72,0,5.48,0,8.19-.08h0c8.4-.08,13.23,2.9,15.83,5.39A15.66,15.66,0,0,1,446,246.6c-2.68,7.46-9.9,12.33-19.29,13C424.58,259.68,422.47,259.71,420.36,259.71Zm-65.14-43.64a8.92,8.92,0,0,0-7.38,3.23c-4,5.11-2.63,14.49.74,20.72,4.08,7.56,9.59,9.62,11.67,10.4,17.21,5.42,37.34,8.38,58.19,8.55,2.74,0,5.5,0,8.19-.08,9.08-.67,16.06-5.36,18.64-12.54A14.91,14.91,0,0,0,442,230.47c-2.48-2.38-7.09-5.2-15-5.2h-.27c-2.72.08-5.49.1-8.22.08-20.92-.17-41.12-3.14-58.42-8.59A18.76,18.76,0,0,0,355.22,216.07Z" transform="translate(99.41 0)"></path><path class="cls-4" d="M488.58,247.15a10,10,0,0,1-8.06-3.6c-3.75-4.58-3.84-12.9-.21-19.77a29.59,29.59,0,0,1,12.84-12.41c17.12-7.34,28.52-16.8,33-27.37a17.52,17.52,0,0,1,1.3-2.39l.09-.14.83-.1.1.28c.3.83.42,1.17.46,5.29v10.58c-.1,14.91-1,17.64-2.09,21.09-4.56,10.78-16.1,20.37-33.37,27.78A17.36,17.36,0,0,1,488.58,247.15Zm39.32-64.89a19.06,19.06,0,0,0-1.07,2C522.28,195,510.74,204.63,493.47,212A28.91,28.91,0,0,0,481,224.12c-3.5,6.63-3.44,14.6.13,19,1.86,2.27,5.48,4.57,12.13,2.61,17-7.32,28.46-16.78,32.93-27.35,1.09-3.36,2-6,2.05-20.84V187C528.16,183.63,528.08,182.86,527.9,182.26Z" transform="translate(99.41 0)"></path><path class="cls-4" d="M495.07,299.69a5.62,5.62,0,0,1-2.77-.67l-17.84-10.3a1.94,1.94,0,0,1,0-3.64l17.75-10.32a6,6,0,0,1,5.53,0l17.84,10.3a1.94,1.94,0,0,1,0,3.64L497.83,299A5.69,5.69,0,0,1,495.07,299.69Zm-.1-24.83a4.91,4.91,0,0,0-2.37.56l-17.75,10.33a1.44,1.44,0,0,0-.88,1.15,1.47,1.47,0,0,0,.87,1.15l17.85,10.3a5.25,5.25,0,0,0,4.76,0L515.2,288a1.47,1.47,0,0,0,.87-1.15,1.44,1.44,0,0,0-.87-1.15l-17.85-10.31A5,5,0,0,0,495,274.86Z" transform="translate(99.41 0)"></path><path class="cls-4" d="M343.72,299.69A5.69,5.69,0,0,1,341,299l-17.85-10.3a1.95,1.95,0,0,1,0-3.64l17.75-10.32a6,6,0,0,1,5.53,0l17.85,10.3a1.95,1.95,0,0,1,0,3.64L346.49,299A5.73,5.73,0,0,1,343.72,299.69Zm-.09-24.83a5,5,0,0,0-2.38.56L323.5,285.75a1.44,1.44,0,0,0-.87,1.15,1.47,1.47,0,0,0,.87,1.15l17.84,10.3a5.25,5.25,0,0,0,4.76,0L363.85,288a1.47,1.47,0,0,0,.87-1.15,1.44,1.44,0,0,0-.87-1.15L346,275.42A5,5,0,0,0,343.63,274.86Z" transform="translate(99.41 0)"></path><g class="cls-43"><path class="cls-4" d="M495.07,291.65a5.63,5.63,0,0,1-2.77-.68l-17.84-10.3a1.94,1.94,0,0,1,0-3.64l17.75-10.32a6.06,6.06,0,0,1,5.53,0L515.58,277a1.94,1.94,0,0,1,0,3.63L497.83,291A5.59,5.59,0,0,1,495.07,291.65Zm-.1-24.84a4.8,4.8,0,0,0-2.37.57L474.85,277.7a1.46,1.46,0,0,0-.88,1.15,1.44,1.44,0,0,0,.87,1.15l17.85,10.31a5.32,5.32,0,0,0,4.76,0L515.2,280a1.2,1.2,0,0,0,0-2.31l-17.85-10.3A4.84,4.84,0,0,0,495,266.81Z" transform="translate(99.41 0)"></path><path class="cls-4" d="M343.72,291.65A5.59,5.59,0,0,1,341,291l-17.85-10.3a1.95,1.95,0,0,1,0-3.64l17.75-10.32a6.06,6.06,0,0,1,5.53,0L364.24,277a1.94,1.94,0,0,1,0,3.63L346.49,291A5.63,5.63,0,0,1,343.72,291.65Zm-.09-24.84a4.87,4.87,0,0,0-2.38.57L323.5,277.7a1.47,1.47,0,0,0-.87,1.15,1.44,1.44,0,0,0,.87,1.15l17.84,10.31a5.32,5.32,0,0,0,4.76,0L363.85,280a1.2,1.2,0,0,0,0-2.31L346,267.38A4.87,4.87,0,0,0,343.63,266.81Z" transform="translate(99.41 0)"></path></g><path class="cls-33" d="M346.07,181.09a3.87,3.87,0,1,1-3.87-3.86A3.87,3.87,0,0,1,346.07,181.09Z" transform="translate(99.41 0)"></path><path class="cls-44" d="M344.1,181.09a1.9,1.9,0,1,1-1.9-1.9A1.9,1.9,0,0,1,344.1,181.09Z" transform="translate(99.41 0)"></path><path class="cls-33" d="M521.15,268a1.9,1.9,0,1,1-1.9-1.9A1.9,1.9,0,0,1,521.15,268Z" transform="translate(99.41 0)"></path><circle class="cls-44" cx="618.66" cy="267.97" r="0.93"></circle><path class="cls-33" d="M504,91.72a3.21,3.21,0,1,1-3.21-3.21A3.21,3.21,0,0,1,504,91.72Z" transform="translate(99.41 0)"></path><path class="cls-44" d="M502.32,91.72a1.58,1.58,0,1,1-1.58-1.58A1.58,1.58,0,0,1,502.32,91.72Z" transform="translate(99.41 0)"></path></g></g></svg> 