<svg xmlns="http://www.w3.org/2000/svg" xmlns:xlink="http://www.w3.org/1999/xlink" id="Ebene_1" x="0px" y="0px" viewBox="0 0 48.1 55.5" style="enable-background:new 0 0 48.1 55.5;" xml:space="preserve"> <style type="text/css"> .st0{fill:#1F70B6;} .st1{fill:#FFFFFF;} .st2{fill:none;stroke:#1F70B6;stroke-width:6;stroke-miterlimit:10;} </style> <title>Gruppe 950</title> <g> <g id="Ebene_1-2"> <g id="Gruppe_950"> <path id="Pfad_946" class="st0" d="M0,13.9v27.8l24,13.9l24.1-13.9V14L24,0L0,13.9z"></path> <path id="Pfad_947" class="st1" d="M39.8,37c-0.2-1.6-0.8-3.1-1.9-4.3l-0.7-0.5c-0.9-0.6-1.8-1-2.9-1.1c-0.2,0-0.3,0-0.5,0V31 c1.8-0.2,4.9-4.7,4.6-12c0.4-0.3,0.7-0.7,0.8-1.1c0.8-2.1-2.2-3.7-2.7-4c-2.5-1.6-5.6-2.2-8.5-1.6c-3.1,0.6-5.1,3.7-4.5,6.8l0,0 c0.3,1.3,0.7,2.5,1.2,3.8c0.4,1.1,0.9,2.3,1.4,3.3l0,0c0.2,0.4,0.5,0.8,0.8,0.8c-0.1,0.7-0.3,1.4-0.5,2.1 c-0.3,0.2-0.6,0.4-0.8,0.6l0,0c-1.7,0.9-3.3,2-4.8,3.1c-1.2,0.9-2.1,2.1-2.6,3.5c-0.5,1.3-0.8,2.6-0.9,4c0,0.7,0,1.4-0.1,2 c-0.1,1.2,0.6,2.3,1.7,2.8c1.3,0.6,2.6,1,4,1.1c1.9,0.2,3.9,0.2,5.9,0.1c1-0.1,2-0.2,3-0.4l0,0c1,0,1.9-0.3,2.7-0.7 c0.9-0.3,1.7-0.6,2.5-1c1.3-0.5,2.3-1.5,2.9-2.8l0.1-1C40,39.2,39.9,38.1,39.8,37z"></path> <path id="Pfad_948" class="st0" d="M34.4,37c-0.2-1.6-0.8-3.1-1.9-4.3l-0.7-0.5c-0.9-0.6-1.8-1-2.9-1.1c-0.2,0-0.3,0-0.5,0V31 c1.8-0.2,4.9-4.7,4.6-12c0.4-0.3,0.7-0.6,0.8-1.1c0.8-2.1-2.2-3.7-2.7-4c-2.5-1.6-5.6-2.1-8.5-1.5c-3.1,0.6-5.1,3.6-4.5,6.8l0,0 c0.3,1.3,0.7,2.5,1.2,3.8c0.4,1.1,0.9,2.3,1.4,3.3l0,0c0.2,0.4,0.5,0.8,0.8,0.8c-0.1,0.7-0.3,1.4-0.5,2.1 c-0.3,0.2-0.6,0.4-0.8,0.6l0,0c-1.7,0.9-3.3,2-4.8,3.1c-1.2,0.9-2,2.1-2.6,3.5c-0.5,1.3-0.8,2.6-0.9,4c0,0.7,0,1.4-0.1,2 c-0.1,1.2,0.6,2.3,1.7,2.8c1.3,0.6,2.6,1,4,1.1c1.9,0.2,3.9,0.2,5.9,0.1c1-0.1,2-0.2,3-0.4l0,0c1,0,1.9-0.3,2.7-0.7 c0.9-0.3,1.7-0.6,2.6-1c1.3-0.5,2.3-1.5,2.9-2.8l0.1-1C34.6,39.1,34.5,38.1,34.4,37z"></path> <path id="Pfad_949" class="st1" d="M28.6,37c-0.2-1.6-0.9-3.1-1.9-4.3L26,32.1c-0.9-0.6-1.9-1-2.9-1.1c-0.2,0-0.3,0-0.5,0v-0.1 c1.9-0.2,4.9-4.7,4.6-12c0.4-0.3,0.7-0.7,0.8-1.1c0.8-2.1-2.2-3.7-2.7-4c-2.5-1.6-5.6-2.1-8.5-1.5c-3.1,0.6-5.1,3.6-4.5,6.8l0,0 c0.3,1.3,0.7,2.5,1.2,3.8c0.4,1.1,0.9,2.3,1.4,3.3l0,0c0.2,0.4,0.5,0.8,0.8,0.8c-0.1,0.7-0.3,1.4-0.5,2.1 c-0.3,0.2-0.6,0.4-0.8,0.6l0,0c-1.7,0.9-3.3,2-4.8,3.1c-1.2,0.9-2,2.1-2.6,3.5c-0.5,1.3-0.8,2.6-0.9,4c0,0.7,0,1.4-0.1,2 c-0.1,1.2,0.6,2.3,1.7,2.8c1.3,0.6,2.6,1,4,1.1c1.9,0.2,3.9,0.2,5.9,0.1c1-0.1,2-0.2,3-0.4l0,0c1,0,1.9-0.3,2.7-0.7 c0.9-0.3,1.6,0.5,2.5,0c1.2-0.7,2.3,0.2,2.9-1.1C28.8,41.6,28.8,39.3,28.6,37z"></path> <path id="Pfad_950" class="st2" d="M2.7,35.8L24,48.4l20.7-11.9"></path> <path id="Pfad_951" class="st0" d="M4.3,40.7L5,44.2l5.8,3l6.3,1.8c0.3-0.4,0.5-0.8,0.7-1.2c0-0.3-3-6.4-3-6.4L4.3,40.7z"></path> </g> </g> </g> </svg>