<?xml version="1.0" encoding="UTF-8"?> <svg xmlns="http://www.w3.org/2000/svg" viewBox="0 0 48.09 55.52"><defs><style>.cls-1{fill:#206fb5;}.cls-2{fill:#fff;}</style></defs><title>Element 2</title><g id="Ebene_2" data-name="Ebene 2"><g id="icons"><polygon class="cls-1" points="0 13.88 0 41.64 24.01 55.52 48.09 41.64 48.09 13.95 24.04 0 0 13.88"></polygon><path class="cls-2" d="M38.05,23.28a8.47,8.47,0,0,0-1.74-5.07,7.05,7.05,0,0,0-5.91-2.57,6.47,6.47,0,0,0-3.51.84,5.38,5.38,0,0,0-2.36,3.43c-.24,1-.28,1.11-.48,1.11s-.25-.1-.49-1.11a5.38,5.38,0,0,0-2.36-3.43,6.44,6.44,0,0,0-3.51-.84,7.05,7.05,0,0,0-5.91,2.57A8.47,8.47,0,0,0,10,23.28c0,3,1.7,6.63,5.11,10.62,2.29,2.72,2.92,3.34,8.89,8.81h0c6-5.47,6.6-6.09,8.89-8.81C36.35,29.91,38.05,26.32,38.05,23.28Z"></path></g></g></svg> 