<svg xmlns="http://www.w3.org/2000/svg" xmlns:xlink="http://www.w3.org/1999/xlink" id="Ebene_1" x="0px" y="0px" viewBox="0 0 48.1 55.5" style="enable-background:new 0 0 48.1 55.5;" xml:space="preserve"> <style type="text/css"> .st0{fill:#1F70B6;} .st1{fill:none;stroke:#FFFFFF;stroke-width:0.5;stroke-linecap:round;stroke-linejoin:round;stroke-dasharray:1;} .st2{fill:#1F70B6;stroke:#FFFFFF;stroke-linecap:round;stroke-linejoin:round;} .st3{fill:none;stroke:#FFFFFF;stroke-linecap:round;stroke-linejoin:round;} .st4{fill:none;stroke:#FFFFFF;stroke-width:0.5;stroke-linecap:round;stroke-linejoin:round;stroke-dasharray:2;} </style> <title>Gruppe 936</title> <g> <g id="Ebene_1-2"> <g id="Gruppe_936"> <path id="Pfad_923" class="st0" d="M0,13.9v27.8l24,13.9l24.1-13.9V14L24,0L0,13.9z"></path> <line id="Linie_6" class="st1" x1="10.2" y1="25.3" x2="10.2" y2="33.1"></line> <g id="Gruppe_937"> <path id="Pfad_924" class="st2" d="M28.7,14.4V9l-4.6-2.6L19.5,9v5.3l4.6,2.7L28.7,14.4z"></path> <g id="Gruppe_936-2"> <line id="Linie_7" class="st3" x1="24.1" y1="17" x2="24.1" y2="11.7"></line> <path id="Pfad_925" class="st2" d="M24.1,11.6L19.7,9l4.4-2.5L28.5,9L24.1,11.6"></path> </g> </g> <line id="Linie_8" class="st1" x1="24.1" y1="41.1" x2="24.1" y2="27.7"></line> <path id="Pfad_928" class="st1" d="M12.4,34l11.7-6.8l11.5,6.6"></path> <line id="Linie_9" class="st1" x1="24.1" y1="24.7" x2="24.1" y2="11.3"></line> <line id="Linie_10" class="st1" x1="21.6" y1="13.2" x2="14.7" y2="17.1"></line> <line id="Linie_11" class="st4" x1="33.5" y1="17.2" x2="26.6" y2="13.2"></line> <path id="Pfad_929" class="st4" d="M35.5,37.1l2.4-1.4v-2.6"></path> <path id="Pfad_930" class="st4" d="M19.5,41.1l4.6,2.7l4.6-2.7"></path> <path id="Pfad_931" class="st4" d="M10.2,33.1v2.6l2.4,1.4"></path> <path id="Pfad_932" class="st4" d="M14.7,17.1l-4.5,2.6v5.5"></path> <g id="Gruppe_939"> <path id="Pfad_933" class="st2" d="M42.6,38.5v-5.3L38,30.5l-4.6,2.7v5.3l4.6,2.7L42.6,38.5z"></path> <g id="Gruppe_938"> <line id="Linie_12" class="st3" x1="38" y1="41.1" x2="38" y2="35.8"></line> <path id="Pfad_934" class="st2" d="M42.4,33.1L38,35.7l-4.4-2.5l4.4-2.6L42.4,33.1z"></path> </g> </g> <g id="Gruppe_941"> <path id="Pfad_935" class="st2" d="M14.8,38.5v-5.3l-4.6-2.7l-4.6,2.7v5.3l4.6,2.7L14.8,38.5z"></path> <g id="Gruppe_940"> <line id="Linie_13" class="st3" x1="10.2" y1="41.1" x2="10.2" y2="35.8"></line> <path id="Pfad_936" class="st2" d="M14.6,33.1l-4.4,2.5l-4.4-2.5l4.4-2.5L14.6,33.1z"></path> </g> </g> <g id="Gruppe_943"> <path id="Pfad_937" class="st2" d="M14.8,22.6v-5.3l-4.6-2.7l-4.6,2.7v5.3l4.6,2.7L14.8,22.6z"></path> <g id="Gruppe_942"> <line id="Linie_14" class="st3" x1="10.2" y1="25.3" x2="10.2" y2="19.9"></line> <path id="Pfad_938" class="st2" d="M14.6,17.3l-4.4,2.5l-4.4-2.5l4.4-2.5L14.6,17.3z"></path> </g> </g> <g id="Gruppe_945"> <path id="Pfad_939" class="st2" d="M42.6,22.6v-5.3L38,14.6l-4.6,2.7v5.3l4.6,2.7L42.6,22.6z"></path> <g id="Gruppe_944"> <line id="Linie_15" class="st3" x1="38" y1="25.3" x2="38" y2="19.9"></line> <path id="Pfad_940" class="st2" d="M42.4,17.3L38,19.8l-4.4-2.5l4.4-2.5L42.4,17.3z"></path> </g> </g> <g id="Gruppe_947"> <path id="Pfad_941" class="st2" d="M28.7,30.2v-5.3l-4.6-2.7l-4.6,2.7v5.3l4.6,2.7L28.7,30.2z"></path> <g id="Gruppe_946"> <line id="Linie_16" class="st3" x1="24.1" y1="32.8" x2="24.1" y2="27.5"></line> <path id="Pfad_942" class="st2" d="M28.5,24.8l-4.4,2.5l-4.4-2.5l4.4-2.5L28.5,24.8z"></path> </g> </g> <g id="Gruppe_949"> <path id="Pfad_943" class="st2" d="M28.7,46.4v-5.3l-4.6-2.7l-4.6,2.7v5.3l4.6,2.7L28.7,46.4z"></path> <g id="Gruppe_948"> <line id="Linie_17" class="st3" x1="24.1" y1="49.1" x2="24.1" y2="43.7"></line> <path id="Pfad_944" class="st2" d="M28.5,41.1l-4.4,2.5l-4.4-2.5l4.4-2.5L28.5,41.1z"></path> </g> </g> <path id="Pfad_945" class="st1" d="M35.8,20.6l-11.7,6.7l-11.5-6.6"></path> <line id="Linie_18" class="st1" x1="37.9" y1="33.1" x2="37.9" y2="25.3"></line> <line id="Linie_19" class="st1" x1="28.7" y1="41.1" x2="35.5" y2="37.1"></line> <line id="Linie_20" class="st1" x1="12.6" y1="37.1" x2="19.5" y2="41.1"></line> </g> </g> </g> </svg>